<svg width="518" height="154" viewBox="0 0 518 154" fill="none" xmlns="http://www.w3.org/2000/svg">
<path d="M104.604 118.985H124.766V76.3362C124.766 60.7371 133.237 53.2694 145.944 53.2694C158.652 53.2694 167.123 60.7371 167.123 76.3362V118.985H187.285V76.3362C187.285 48.7888 170.681 34.8491 145.944 34.8491C121.208 34.8491 104.604 48.9547 104.604 76.3362V118.985Z" fill="black"/>
<path d="M245.558 121.142C265.381 121.142 280.629 111.019 286.898 95.4203H265.381C261.145 100.731 254.537 103.22 245.558 103.22C233.698 103.22 224.379 96.9138 221.668 84.9655H290.287V77.9957C290.287 53.1034 271.988 34.8491 245.558 34.8491C219.127 34.8491 200.49 53.1034 200.49 77.9957C200.49 102.888 219.127 121.142 245.558 121.142ZM222.177 69.2004C225.396 58.4138 234.206 52.7715 245.558 52.7715C256.57 52.7715 265.72 58.2478 268.939 69.2004H222.177Z" fill="black"/>
<path d="M337.708 121.142C358.039 121.142 371.932 110.19 371.932 87.4547V85.2974H351.771V87.4547C351.771 98.5733 346.01 102.722 337.708 102.722C329.406 102.722 323.645 98.4073 323.645 87.4547V54.9289H366.85V37.0065H323.645V7.96551H303.483V87.4547C303.483 110.19 317.377 121.142 337.708 121.142Z" fill="black"/>
<path d="M397.934 26.3858C405.728 26.3858 411.319 20.9095 411.319 13.2759C411.319 5.64224 405.728 0 397.934 0C390.141 0 384.55 5.64224 384.55 13.2759C384.55 20.9095 390.141 26.3858 397.934 26.3858ZM387.769 118.985H407.931V37.0065H387.769V118.985Z" fill="black"/>
<path d="M427.411 154H447.573V107.037C453.503 116.164 463.499 121.142 475.528 121.142C495.86 121.142 517.208 106.871 517.208 78.8254C517.208 52.7715 498.571 34.8491 471.97 34.8491C445.709 34.8491 427.411 52.1077 427.411 78.6595V154ZM472.14 102.722C457.4 102.722 447.573 92.4332 447.573 77.9957C447.573 63.5582 457.4 53.2694 472.14 53.2694C486.88 53.2694 496.876 63.5582 496.876 77.9957C496.876 92.4332 486.88 102.722 472.14 102.722Z" fill="black"/>
<path d="M45.0377 122.038C71.4508 122.038 90.0755 103.598 90.0755 78.4531C90.0755 53.3079 71.4508 34.8682 45.0377 34.8682C18.6246 34.8682 -1.95562e-07 53.3079 -4.62237e-07 78.4531C-7.28912e-07 103.598 18.6246 122.038 45.0377 122.038Z" fill="#FFF05F"/>
<path fill-rule="evenodd" clip-rule="evenodd" d="M69.7365 71.8086C72.946 71.8086 75.5478 74.4104 75.5478 77.6199C75.5478 86.066 72.9845 93.5443 67.7838 99.0701C62.583 104.596 55.2737 107.607 46.8431 108.119C43.6395 108.313 40.8849 105.874 40.6905 102.67C40.4962 99.4663 42.9357 96.7117 46.1393 96.5174C52.2104 96.1491 56.5237 94.0756 59.3201 91.1043C62.1166 88.1331 63.9252 83.7021 63.9252 77.6199C63.9252 74.4104 66.527 71.8086 69.7365 71.8086Z" fill="black"/>
</svg>
